<svg xmlns="http://www.w3.org/2000/svg" width="23.389" height="21.926" viewBox="0 0 23.389 21.926"><defs><style>.a{fill:#253c8f;}</style></defs><path class="a" d="M24.109,6H21.734V7.462h2.193v16.08H3.462V7.462H5.654V6H3.279A1.3,1.3,0,0,0,2,7.323V23.68A1.3,1.3,0,0,0,3.279,25h20.83a1.3,1.3,0,0,0,1.279-1.323V7.323A1.3,1.3,0,0,0,24.109,6Z" transform="translate(-2 -3.076)"/><path class="a" d="M8,14H9.462v1.462H8Z" transform="translate(-3.614 -5.229)"/><path class="a" d="M14,14h1.462v1.462H14Z" transform="translate(-5.229 -5.229)"/><path class="a" d="M20,14h1.462v1.462H20Z" transform="translate(-6.844 -5.229)"/><path class="a" d="M26,14h1.462v1.462H26Z" transform="translate(-8.459 -5.229)"/><path class="a" d="M8,19H9.462v1.462H8Z" transform="translate(-3.614 -6.575)"/><path class="a" d="M14,19h1.462v1.462H14Z" transform="translate(-5.229 -6.575)"/><path class="a" d="M20,19h1.462v1.462H20Z" transform="translate(-6.844 -6.575)"/><path class="a" d="M26,19h1.462v1.462H26Z" transform="translate(-8.459 -6.575)"/><path class="a" d="M8,24H9.462v1.462H8Z" transform="translate(-3.614 -7.92)"/><path class="a" d="M14,24h1.462v1.462H14Z" transform="translate(-5.229 -7.92)"/><path class="a" d="M20,24h1.462v1.462H20Z" transform="translate(-6.844 -7.92)"/><path class="a" d="M26,24h1.462v1.462H26Z" transform="translate(-8.459 -7.92)"/><path class="a" d="M9.731,7.847a.731.731,0,0,0,.731-.731V2.731A.731.731,0,1,0,9,2.731V7.116A.731.731,0,0,0,9.731,7.847Z" transform="translate(-3.884 -2)"/><path class="a" d="M25.731,7.847a.731.731,0,0,0,.731-.731V2.731a.731.731,0,1,0-1.462,0V7.116A.731.731,0,0,0,25.731,7.847Z" transform="translate(-8.189 -2)"/><path class="a" d="M13,6h7.309V7.462H13Z" transform="translate(-4.96 -3.076)"/></svg>