<svg xmlns="http://www.w3.org/2000/svg" width="42" height="40" viewBox="0 0 42 40"><defs><style>.a{fill:#f3f3f3;}.b{fill:#253c8f;}</style></defs><g transform="translate(-0.448 -3)"><rect class="a" width="42" height="40" rx="11" transform="translate(0.448 3)"/><g transform="translate(12.086 12.433)"><path class="b" d="M21.561,29.906H20.08V27.684a3.707,3.707,0,0,0-3.7-3.7H11.934a3.707,3.707,0,0,0-3.7,3.7v2.222H6.75V27.684A5.19,5.19,0,0,1,11.934,22.5h4.443a5.19,5.19,0,0,1,5.184,5.184Z" transform="translate(-5.269 -9.17)"/><path class="b" d="M5.241,6.75a.741.741,0,0,0-.741.741v6.665H5.981V7.491A.741.741,0,0,0,5.241,6.75Z" transform="translate(-4.5 -3.788)"/><path class="b" d="M4.5,2.25V3.731H8.2V8.915a5.184,5.184,0,1,0,10.368,0V3.731h3.7V2.25ZM9.684,3.731H17.09V5.953H9.684Zm3.7,8.887a3.7,3.7,0,0,1-3.7-3.7V7.434H17.09V8.915A3.7,3.7,0,0,1,13.387,12.618Z" transform="translate(-4.5 -2.25)"/></g></g></svg>