<svg xmlns="http://www.w3.org/2000/svg" width="26.155" height="25.077" viewBox="0 0 26.155 25.077"><defs><style>.a{fill:#181816;}.b{fill:#d9001b;}.c{fill:#e0a784;}.d{fill:#ecbe96;}</style></defs><g transform="translate(0 0)"><path class="a" d="M1671.017,47.194c-.169-.61-.33-1.222-.507-1.83a3.93,3.93,0,0,1,.19-2.557,24.108,24.108,0,0,0,1.269-3.258,8.087,8.087,0,0,0,.215-2.123,16.582,16.582,0,0,1,.142-3.445,9.94,9.94,0,0,1,2.462-4.934,2.76,2.76,0,0,1,2.789-1.211.55.55,0,0,0,.226-.046A4.678,4.678,0,0,1,1682.8,29.5a9.021,9.021,0,0,1,2.326,4.348c.173,1.075.129,2.175.269,3.26a23.8,23.8,0,0,0,1.185,5.2,4.325,4.325,0,0,1-.006,2.737,12.587,12.587,0,0,0-.481,2.019c-.074.21-.074.429-.449.3-.919-.311-1.852-.58-2.754-.947a2.19,2.19,0,0,1-1.291-1.459,8.633,8.633,0,0,1-.237-1.943.8.8,0,0,1,.276-.446,5.9,5.9,0,0,0,1.516-3.419c.085-.749.154-1.5.286-2.243a.53.53,0,0,0-.387-.7,18.04,18.04,0,0,1-4.951-3.141,18.81,18.81,0,0,1-1.881-1.948,21.13,21.13,0,0,1-2.809,4.97c-.11.158-.268.292-.237.524.294,2.188.269,4.48,2.033,6.186.051.049.057.143.084.217-.013.275-.015.552-.041.826a2.8,2.8,0,0,1-.908,2.23,9.969,9.969,0,0,1-3.181,1.216C1671.124,47.3,1671.065,47.227,1671.017,47.194Z" transform="translate(-1665.246 -27.62)"/><path class="b" d="M1604.682,377.2a9.019,9.019,0,0,1,2.338,1.392,4.773,4.773,0,0,1,1.489,2.774c.065.34.047.521-.411.521q-12.634-.023-25.268,0c-.44,0-.491-.157-.424-.513a4.719,4.719,0,0,1,1.9-3.114,8.444,8.444,0,0,1,2.04-1.079c.07.036.142.068.211.107a16.834,16.834,0,0,0,17.682.067A.918.918,0,0,1,1604.682,377.2Z" transform="translate(-1582.382 -356.809)"/><path class="c" d="M1668.81,296.8a.918.918,0,0,0-.44.153,16.834,16.834,0,0,1-17.681-.067c-.068-.039-.141-.072-.211-.107.485-.182.966-.376,1.457-.541.154-.052.3-.077.345-.255.048.033.107.1.143.094a9.969,9.969,0,0,0,3.181-1.216,2.8,2.8,0,0,0,.908-2.23c.025-.274.028-.551.041-.826.226,0,.328.2.483.312,2.022,1.515,2.62,1.658,4.6.405.348-.22.548-.635.989-.716a8.647,8.647,0,0,0,.237,1.943,2.191,2.191,0,0,0,1.291,1.459c.9.368,1.834.636,2.754.947.375.127.375-.093.449-.3-.04.474.349.532.653.659C1668.268,296.62,1668.541,296.7,1668.81,296.8Z" transform="translate(-1646.509 -276.409)"/><path class="d" d="M1726.52,99.527c-.441.081-.641.5-.989.716-1.977,1.253-2.575,1.11-4.6-.405-.155-.116-.257-.308-.483-.312-.027-.073-.033-.168-.084-.217-1.765-1.706-1.739-4-2.033-6.186-.032-.233.126-.367.236-.524a21.149,21.149,0,0,0,2.809-4.97,18.756,18.756,0,0,0,1.88,1.948,18.04,18.04,0,0,0,4.951,3.141.53.53,0,0,1,.387.7c-.132.741-.2,1.494-.286,2.243a5.9,5.9,0,0,1-1.516,3.419A.8.8,0,0,0,1726.52,99.527Z" transform="translate(-1710.407 -84.131)"/></g></svg>