<svg xmlns="http://www.w3.org/2000/svg" width="42.089" height="40.709" viewBox="0 0 42.089 40.709"><defs><style>.a{fill:#f3f3f3;}.b{fill:#253c8f;stroke:#253c8f;stroke-width:0.6px;}</style></defs><g transform="translate(-131.37 -33.76)"><rect class="a" width="42.089" height="40.709" rx="11" transform="translate(131.37 33.76)"/><g transform="translate(142.009 43.235)"><g transform="translate(0 0)"><path class="b" d="M20.14,14.024a4.342,4.342,0,0,0-4.34-1.077l-1.529-1.529,6.681-6.681a1.6,1.6,0,0,0,0-2.263L18.947.469a1.6,1.6,0,0,0-2.263,0L10,7.15,8.474,5.621A4.334,4.334,0,0,0,2.586.379a.418.418,0,0,0-.127.679l2,2L3.044,4.464l-2-2A.418.418,0,0,0,.369,2.6,4.334,4.334,0,0,0,5.611,8.484L7.14,10.013,2.023,15.13a.423.423,0,0,0-.1.165L.1,20.793a.418.418,0,0,0,.529.529L6.12,19.5a.5.5,0,0,0,.17-.1l5.117-5.117,1.529,1.529a4.333,4.333,0,0,0,5.888,5.242.418.418,0,0,0,.127-.679l-2-2,1.411-1.411,2,2a.418.418,0,0,0,.679-.127,4.334,4.334,0,0,0-.9-4.811ZM17.276,1.06a.763.763,0,0,1,1.079,0l2.005,2.005a.763.763,0,0,1,0,1.079L19,5.5,15.919,2.418ZM6.018,7.708a.418.418,0,0,0-.444-.1A3.5,3.5,0,0,1,.931,3.535L2.748,5.352a.418.418,0,0,0,.592,0l2-2a.418.418,0,0,0,0-.592L3.525.941A3.5,3.5,0,0,1,7.6,5.584a.418.418,0,0,0,.1.444L9.412,7.742l-1.68,1.68ZM1.156,20.265l.605-1.826L2.982,19.66Zm2.715-.9L2.055,17.551,2.5,16.2l2.717,2.717Zm2.124-.855L4.748,17.264l4.1-4.1a.418.418,0,0,0-.592-.592l-4.1,4.1L2.91,15.426,15.327,3.009l.034.034,1.213,1.213L10.926,9.9a.418.418,0,1,0,.592.592l5.647-5.647,1.246,1.246ZM20.48,17.9l-1.817-1.817a.418.418,0,0,0-.592,0l-2,2a.418.418,0,0,0,0,.592l1.817,1.817a3.5,3.5,0,0,1-4.077-4.643.418.418,0,0,0-.1-.444L12,13.689l1.68-1.68,1.714,1.714a.418.418,0,0,0,.444.1A3.5,3.5,0,0,1,20.48,17.9Z" transform="translate(-0.001 0)"/><g transform="translate(9.471 11.114)"><path class="b" d="M226.817,266.486a.418.418,0,1,1,.41-.337A.422.422,0,0,1,226.817,266.486Z" transform="translate(-226.399 -265.651)"/></g></g></g></g></svg>