<svg xmlns="http://www.w3.org/2000/svg" width="27" height="22.5" viewBox="0 0 27 22.5"><defs><style>.a{fill:#1a1a1a;fill-rule:evenodd;}</style></defs><g transform="translate(-4.5 -6.75)"><path class="a" d="M4.5,28.125A1.125,1.125,0,0,1,5.625,27h15.75a1.125,1.125,0,0,1,0,2.25H5.625A1.125,1.125,0,0,1,4.5,28.125Zm0-6.75A1.125,1.125,0,0,1,5.625,20.25h24.75a1.125,1.125,0,0,1,0,2.25H5.625A1.125,1.125,0,0,1,4.5,21.375Zm0-6.75A1.125,1.125,0,0,1,5.625,13.5h15.75a1.125,1.125,0,0,1,0,2.25H5.625A1.125,1.125,0,0,1,4.5,14.625Zm0-6.75A1.125,1.125,0,0,1,5.625,6.75h24.75a1.125,1.125,0,0,1,0,2.25H5.625A1.125,1.125,0,0,1,4.5,7.875Z"/></g></svg>