<svg xmlns="http://www.w3.org/2000/svg" width="42.779" height="40.709" viewBox="0 0 42.779 40.709"><defs><style>.a{fill:#f3f3f3;}.b{fill:#253c8f;}</style></defs><g transform="translate(-29.336 -33.76)"><rect class="a" width="42.779" height="40.709" rx="11" transform="translate(29.336 33.76)"/><g transform="translate(41.619 43.636)"><path class="b" d="M21.8,30.026H20.3V27.768a3.768,3.768,0,0,0-3.763-3.763H12.018a3.768,3.768,0,0,0-3.763,3.763v2.258H6.75V27.768A5.274,5.274,0,0,1,12.018,22.5h4.516A5.274,5.274,0,0,1,21.8,27.768Z" transform="translate(-5.245 -8.953)"/><path class="b" d="M5.253,6.75A.753.753,0,0,0,4.5,7.5v6.774H6.005V7.5A.753.753,0,0,0,5.253,6.75Z" transform="translate(-4.5 -3.74)"/><path class="b" d="M4.5,2.25V3.755H8.263V9.024a5.268,5.268,0,1,0,10.537,0V3.755h3.763V2.25ZM9.768,3.755h7.526V6.013H9.768Zm3.763,9.032A3.763,3.763,0,0,1,9.768,9.024V7.518h7.526V9.024A3.763,3.763,0,0,1,13.532,12.787Z" transform="translate(-4.5 -2.25)"/></g></g></svg>