<svg xmlns="http://www.w3.org/2000/svg" width="17.001" height="17" viewBox="0 0 17.001 17">
  <g id="Group_915" data-name="Group 915" transform="translate(-352 -504)">
    <path id="Path_13466" data-name="Path 13466" d="M-694.641,90.18a8.013,8.013,0,0,1,2.642.545,8.322,8.322,0,0,1,5.217,5.839,8.491,8.491,0,0,1-6.727,10.473,7.488,7.488,0,0,1-1.132.125c-.1-.151-.273-.084-.4-.105a8.331,8.331,0,0,1-4.25-2,8.292,8.292,0,0,1-2.2-3.018,8.452,8.452,0,0,1-.608-4.613,8.345,8.345,0,0,1,1.017-2.943,8.518,8.518,0,0,1,2.531-2.772,8.278,8.278,0,0,1,3.533-1.428C-694.9,90.263-694.735,90.333-694.641,90.18Zm-2.447,3.608a2.649,2.649,0,0,0-.83.021,2.632,2.632,0,0,0-2.112,2.45,2.678,2.678,0,0,0,.676,1.89c1.022,1.263,2.032,2.536,3.046,3.806.395.494.792.986,1.183,1.482.085.107.148.118.23,0,.106-.149.22-.292.331-.438,1.343-1.677,2.691-3.35,4.025-5.033a2.5,2.5,0,0,0,.521-1.913,2.626,2.626,0,0,0-2.484-2.284,2.74,2.74,0,0,0-2.152.937c-.346.367-.363.366-.71,0A2.768,2.768,0,0,0-697.088,93.788Z" transform="translate(1055.505 413.829)" fill="#f96450"/>
    <path id="Path_13467" data-name="Path 13467" d="M-717.311,90.018c-.094.153-.261.083-.385.1a8.278,8.278,0,0,0-3.533,1.428,8.518,8.518,0,0,0-2.531,2.772,8.345,8.345,0,0,0-1.017,2.943,8.452,8.452,0,0,0,.608,4.613,8.292,8.292,0,0,0,2.2,3.018,8.331,8.331,0,0,0,4.25,2c.132.021.3-.045.4.105a8.489,8.489,0,0,1-8.864-8.511A8.49,8.49,0,0,1-717.311,90.018Z" transform="translate(1078.175 413.991)" fill="#dc4733"/>
    <path id="Path_13468" data-name="Path 13468" d="M-644.3,156.067a2.768,2.768,0,0,1,1.725.919c.348.366.364.367.71,0a2.74,2.74,0,0,1,2.152-.937,2.626,2.626,0,0,1,2.484,2.284,2.5,2.5,0,0,1-.521,1.913c-1.334,1.684-2.683,3.356-4.025,5.033a.766.766,0,0,1-.107-.093q-.922-1.149-1.841-2.3c-.685-.857-1.367-1.716-2.055-2.571a2.491,2.491,0,0,1-.55-2.073,2.55,2.55,0,0,1,1.913-2.109C-644.37,156.121-644.319,156.125-644.3,156.067Z" transform="translate(1002.719 351.549)" fill="#efefef"/>
    <path id="Path_13469" data-name="Path 13469" d="M-659.5,156.016c-.018.057-.069.054-.114.067a2.55,2.55,0,0,0-1.913,2.109,2.49,2.49,0,0,0,.55,2.072c.687.855,1.37,1.714,2.055,2.571q.919,1.151,1.841,2.3a.772.772,0,0,0,.107.093c-.111.146-.225.289-.331.438-.083.116-.146.106-.23,0-.392-.5-.789-.989-1.183-1.482-1.015-1.269-2.024-2.542-3.046-3.806a2.678,2.678,0,0,1-.676-1.89,2.632,2.632,0,0,1,2.112-2.45A2.649,2.649,0,0,1-659.5,156.016Z" transform="translate(1017.92 351.601)" fill="#d2d1d1"/>
  </g>
</svg>
