<svg xmlns="http://www.w3.org/2000/svg" width="19.228" height="17.107" viewBox="0 0 19.228 17.107"><defs><style>.a{fill:#a1a1a1;}</style></defs><path class="a" d="M9.614,17.107a1.128,1.128,0,0,1-.743-.279c-.777-.679-1.526-1.318-2.186-1.881l0,0a40.662,40.662,0,0,1-4.774-4.481A7.157,7.157,0,0,1,0,5.779a6.01,6.01,0,0,1,1.525-4.1A5.171,5.171,0,0,1,5.372,0,4.836,4.836,0,0,1,8.393,1.043,6.181,6.181,0,0,1,9.614,2.318a6.182,6.182,0,0,1,1.222-1.275A4.836,4.836,0,0,1,13.857,0,5.171,5.171,0,0,1,17.7,1.674a6.01,6.01,0,0,1,1.525,4.1,7.156,7.156,0,0,1-1.907,4.685,40.658,40.658,0,0,1-4.773,4.481c-.662.564-1.412,1.2-2.191,1.884a1.128,1.128,0,0,1-.743.279ZM5.372,1.126A4.057,4.057,0,0,0,2.353,2.438,4.889,4.889,0,0,0,1.126,5.779,6.022,6.022,0,0,0,2.774,9.745a40.014,40.014,0,0,0,4.637,4.342l0,0c.663.565,1.415,1.206,2.2,1.89.787-.686,1.54-1.327,2.2-1.893a40.024,40.024,0,0,0,4.637-4.342A6.022,6.022,0,0,0,18.1,5.779a4.889,4.889,0,0,0-1.227-3.341,4.056,4.056,0,0,0-3.018-1.311,3.736,3.736,0,0,0-2.332.807,5.466,5.466,0,0,0-1.3,1.5A.711.711,0,0,1,9,3.438a5.461,5.461,0,0,0-1.3-1.5,3.735,3.735,0,0,0-2.332-.807Zm0,0" transform="translate(0 0)"/></svg>