<svg xmlns="http://www.w3.org/2000/svg" width="29.313" height="30.287" viewBox="0 0 29.313 30.287">
  <path id="Path_11" data-name="Path 11" d="M20.592,30.83h4.486a.32.32,0,0,0,.3-.33V17.637a1.264,1.264,0,0,1,1.2-1.319h2.189L16.425,4.533,4.049,16.318H6.236a1.263,1.263,0,0,1,1.2,1.319V30.5a.321.321,0,0,0,.3.33h4.486V22.584a1.58,1.58,0,0,1,1.5-1.649H19.1a1.58,1.58,0,0,1,1.5,1.649Zm4.486,1.979H19.994a1.263,1.263,0,0,1-1.2-1.319V23.373a.44.44,0,0,0-.416-.459H14.428a.44.44,0,0,0-.416.459v8.116a1.263,1.263,0,0,1-1.2,1.319H7.732A2.21,2.21,0,0,1,5.638,30.5V18.3H3.328a1.555,1.555,0,0,1-1.437-.95,1.758,1.758,0,0,1,.367-1.938L15.21,3.037a1.678,1.678,0,0,1,1.182-.516,1.724,1.724,0,0,1,1.242.549L30.546,15.4l0,.005a1.756,1.756,0,0,1,.368,1.938,1.557,1.557,0,0,1-1.438.95h-2.31V30.5A2.209,2.209,0,0,1,25.078,32.808Z" transform="translate(-1.749 -2.521)" fill="#757575"/>
</svg>
