<svg xmlns="http://www.w3.org/2000/svg" width="26.318" height="29.024" viewBox="0 0 26.318 29.024">
  <path id="Path_8" data-name="Path 8" d="M27.524,11.575H11.673a.947.947,0,0,0-.9.989V21.8a.947.947,0,0,0,.9.989h8.075v7.256H4.794V4.979H27.524Zm0,18.47H21.542V21.8a.947.947,0,0,0-.9-.989H12.57V13.554H27.524Zm1.794.33V4.649A1.58,1.58,0,0,0,27.823,3H4.5A1.58,1.58,0,0,0,3,4.649V30.374a1.58,1.58,0,0,0,1.5,1.649H27.823A1.58,1.58,0,0,0,29.318,30.374Z" transform="translate(-3 -3)" fill="#757575"/>
</svg>
