<svg xmlns="http://www.w3.org/2000/svg" width="42.089" height="40.709" viewBox="0 0 42.089 40.709"><defs><style>.a{fill:#f3f3f3;}.b{fill:#253c8f;}</style></defs><g transform="translate(-231.503 -33.76)"><g transform="translate(-310.825 31)"><rect class="a" width="42.089" height="40.709" rx="11" transform="translate(542.328 2.76)"/><path class="b" d="M11.134,19.811a1.306,1.306,0,0,1-.861-.323c-.9-.787-1.767-1.526-2.532-2.178l0,0a47.089,47.089,0,0,1-5.528-5.189A8.288,8.288,0,0,1,0,6.692,6.96,6.96,0,0,1,1.767,1.939,5.988,5.988,0,0,1,6.221,0a5.6,5.6,0,0,1,3.5,1.208,7.158,7.158,0,0,1,1.414,1.477,7.159,7.159,0,0,1,1.415-1.477A5.6,5.6,0,0,1,16.047,0,5.988,5.988,0,0,1,20.5,1.939a6.96,6.96,0,0,1,1.766,4.753,8.287,8.287,0,0,1-2.208,5.425,47.084,47.084,0,0,1-5.528,5.189c-.767.653-1.635,1.393-2.537,2.182a1.307,1.307,0,0,1-.861.323ZM6.221,1.3a4.7,4.7,0,0,0-3.5,1.518A5.661,5.661,0,0,0,1.3,6.692a6.973,6.973,0,0,0,1.908,4.593,46.339,46.339,0,0,0,5.37,5.029l0,0c.768.655,1.639,1.4,2.545,2.189.912-.794,1.784-1.537,2.553-2.193a46.351,46.351,0,0,0,5.37-5.028,6.974,6.974,0,0,0,1.908-4.593,5.661,5.661,0,0,0-1.421-3.869,4.7,4.7,0,0,0-3.5-1.518,4.326,4.326,0,0,0-2.7.935,6.33,6.33,0,0,0-1.505,1.742.823.823,0,0,1-1.414,0A6.324,6.324,0,0,0,8.921,2.24a4.326,4.326,0,0,0-2.7-.935Zm0,0" transform="translate(551.972 13.156)"/></g></g></svg>