<svg xmlns="http://www.w3.org/2000/svg" width="42" height="40" viewBox="0 0 42 40"><defs><style>.a{fill:#f3f3f3;}.a,.b{opacity:0.37;}.b{fill:#4d4d4d;}</style></defs><g transform="translate(-131 -117)"><rect class="a" width="42" height="40" rx="11" transform="translate(131 117)"/><path class="b" d="M10.955,19.493a1.285,1.285,0,0,1-.847-.318c-.885-.774-1.739-1.5-2.491-2.143l0,0a46.335,46.335,0,0,1-5.44-5.106A8.155,8.155,0,0,1,0,6.585,6.848,6.848,0,0,1,1.738,1.908,5.892,5.892,0,0,1,6.121,0,5.511,5.511,0,0,1,9.564,1.188a7.043,7.043,0,0,1,1.392,1.453,7.044,7.044,0,0,1,1.392-1.453A5.511,5.511,0,0,1,15.79,0a5.892,5.892,0,0,1,4.383,1.908,6.848,6.848,0,0,1,1.738,4.677,8.154,8.154,0,0,1-2.173,5.338A46.33,46.33,0,0,1,14.3,17.029c-.754.643-1.609,1.371-2.5,2.147a1.286,1.286,0,0,1-.847.318ZM6.121,1.284A4.622,4.622,0,0,0,2.682,2.778a5.571,5.571,0,0,0-1.4,3.807A6.862,6.862,0,0,0,3.161,11.1a45.6,45.6,0,0,0,5.284,4.948l0,0c.756.644,1.612,1.374,2.5,2.154.9-.781,1.755-1.513,2.512-2.158A45.608,45.608,0,0,0,18.75,11.1a6.862,6.862,0,0,0,1.878-4.519,5.571,5.571,0,0,0-1.4-3.807A4.622,4.622,0,0,0,15.79,1.284a4.257,4.257,0,0,0-2.658.92,6.228,6.228,0,0,0-1.481,1.714.81.81,0,0,1-1.392,0A6.222,6.222,0,0,0,8.778,2.2a4.257,4.257,0,0,0-2.657-.92Zm0,0" transform="translate(140.682 126.945)"/></g></svg>