<svg xmlns="http://www.w3.org/2000/svg" width="26.213" height="25.077" viewBox="0 0 26.213 25.077"><defs><style>.a{fill:#eecba8;}.b{fill:#219ed8;}.c{fill:#edc9ac;}.d{fill:#e5e5e4;}.e{fill:#1f1f1d;}.f{fill:#f4d9c0;}.g{fill:#f4f4f4;}</style></defs><path class="a" d="M317.017,169.236a1.619,1.619,0,0,0-.152.588,5.173,5.173,0,0,1-.251,1.152.553.553,0,0,1-.193.292.441.441,0,0,1-.381.084c-.1-.019-.128.007-.125.1a5.059,5.059,0,0,1-.157,1.292,2.625,2.625,0,0,1-.347.807c-.154.246-.352.463-.482.723-.039,0-.075,0-.106.039a6.009,6.009,0,0,1-.557.552c-.154.152-.311.3-.475.443a7.787,7.787,0,0,1-1.082.778,1.929,1.929,0,0,1-.86.323,2.891,2.891,0,0,1-1.265-.094,4.28,4.28,0,0,1-.766-.417c-.229-.152-.443-.321-.658-.494-.171-.14-.347-.275-.508-.422-.241-.219-.46-.463-.689-.7-.024-.024-.046-.063-.089-.031a2.253,2.253,0,0,0-.333-.5,3.234,3.234,0,0,1-.436-.9,4.246,4.246,0,0,1-.178-1.06c0-.123-.019-.248-.019-.371,0-.07-.022-.089-.094-.077a.479.479,0,0,1-.6-.376c-.053-.2-.13-.4-.178-.6-.067-.292-.07-.6-.142-.887-.041-.164-.123-.311-.169-.475a1.465,1.465,0,0,1-.014-.783,1.639,1.639,0,0,1,.053-.207.342.342,0,0,1,.429-.227.479.479,0,0,0,.084.007c.077.166.152.335.236.5a.893.893,0,0,1,.1.439,4.105,4.105,0,0,0,.077.875.565.565,0,0,0,.12.282v-.142a13.114,13.114,0,0,1,.072-1.477,3.384,3.384,0,0,0,.075-.5,11.067,11.067,0,0,1,.019-1.574.474.474,0,0,1,.034-.14c.246-.617.489-1.234.74-1.851a3.226,3.226,0,0,1,.345-.7,1.025,1.025,0,0,1,1.159-.383,4.049,4.049,0,0,0,.492.188,4.332,4.332,0,0,0,1.926-.077,1.888,1.888,0,0,1,1.125.022.952.952,0,0,0,.4.043c.229-.022.455-.043.684-.051a1.5,1.5,0,0,1,1.538.93,4.565,4.565,0,0,1,.313,1.068,4.326,4.326,0,0,1,.133,1.178,3.412,3.412,0,0,0,.111,1.012,4.21,4.21,0,0,1,.111.868c0,.313,0,.627,0,.94a.534.534,0,0,0,.053.251c.031-.145.048-.289.067-.431a3.8,3.8,0,0,1,.321-1.248c.053.01.084-.041.135-.046a.322.322,0,0,1,.318.125.778.778,0,0,1,.157.374A1.87,1.87,0,0,1,317.017,169.236Z" transform="translate(-298.307 -159.144)"/><path class="b" d="M26.341,812.042a.033.033,0,0,0-.022,0h-.2c-.053,0-.1,0-.157,0h-5.7c-.2,0-.4,0-.6,0H18.99a.033.033,0,0,0-.022,0h-.193l-.123,0-.094,0c-.289,0-.581,0-.87,0h-.313c-.039,0-.08,0-.118,0l-.123,0h-.07c-.036,0-.072,0-.108,0h-6.5c-.031,0-.065,0-.1,0a5.591,5.591,0,0,0-.6,0l-.072,0-.217,0H9.4c-.055,0-.111,0-.166,0a.3.3,0,0,0-.048,0l-.072,0q-1.157,0-2.314,0c-.041,0-.08,0-.12,0H1.318c-.092,0-.186,0-.277,0l-.1,0-.118,0H.774l-.574-.01a14.652,14.652,0,0,1,.6-2.063,5.86,5.86,0,0,1,.571-1.164,3.419,3.419,0,0,1,.2-.277.906.906,0,0,1,.272-.161,15.612,15.612,0,0,1,1.812-.831c.494-.2.993-.386,1.5-.557.578-.2,1.164-.378,1.747-.569a.189.189,0,0,1,.161.007l0,0c0,.012,0,.024.014.027a10.39,10.39,0,0,0,1.5,1.258,9.154,9.154,0,0,0,2.106,1.092,7.789,7.789,0,0,0,2.868.448,7.879,7.879,0,0,0,2.181-.383,8.8,8.8,0,0,0,2.427-1.246,10.609,10.609,0,0,0,1.318-1.116c.1-.13.214-.1.349-.058.677.217,1.357.431,2.027.672l.588.21a.611.611,0,0,0,.212.08c.321.13.648.246.962.39a8.347,8.347,0,0,1,1.321.682,1.7,1.7,0,0,1,.492.643A9.21,9.21,0,0,1,26.16,811c.089.311.164.627.248.94C26.418,812,26.418,812.042,26.341,812.042Z" transform="translate(-0.2 -786.968)"/><path class="c" d="M297.31,631.244a10.751,10.751,0,0,1-1.318,1.116,8.805,8.805,0,0,1-2.427,1.246,7.815,7.815,0,0,1-5.049-.065,8.919,8.919,0,0,1-2.106-1.092,10.247,10.247,0,0,1-1.5-1.258.248.248,0,0,0-.014-.026l0,0a.083.083,0,0,1,.07-.094,5.964,5.964,0,0,0,1.183-.542,7.51,7.51,0,0,0,1.13-.793.161.161,0,0,1,.1-.043c.077-.014.094-.072.1-.14h0a.042.042,0,0,0,.043-.053.266.266,0,0,0,0-.043.047.047,0,0,1,.024-.048c0-.014,0-.031,0-.046.014-.186.036-.374.039-.559,0-.089-.031-.178.027-.263,0-.111,0-.224,0-.335,0-.041-.017-.087.022-.123,0-.017,0-.031,0-.048-.043-.06.024-.113.007-.171,0-.159,0-.32,0-.479.031-.068.058-.137-.017-.2,0-.079,0-.159,0-.239.034-.031.01-.041-.019-.051,0-.024,0-.046,0-.07.043-.031.065.007.089.031.229.234.448.475.689.7.161.147.337.284.508.422a7.664,7.664,0,0,0,.658.494,4,4,0,0,0,.766.417,2.858,2.858,0,0,0,1.265.094,1.9,1.9,0,0,0,.86-.323,7.656,7.656,0,0,0,1.082-.778c.161-.145.318-.292.475-.443a5.463,5.463,0,0,0,.557-.552c.031-.039.067-.034.106-.039,0,.024,0,.051,0,.075-.031.024-.031.048,0,.072a4.061,4.061,0,0,1-.022.419c0,.5.022,1,.055,1.5a1.02,1.02,0,0,0,.043.417c0,.022-.092.029-.012.068.014.007.022.031.027.051a.35.35,0,0,0,.222.246h.024l.029.067a10.186,10.186,0,0,0,1.048.73,5.655,5.655,0,0,0,1.2.559C297.428,631.1,297.322,631.174,297.31,631.244Z" transform="translate(-278.031 -611.71)"/><path class="d" d="M703.9,742.836c0-.014,0-.034.022-.036s.014.01.012.012C703.934,742.834,703.914,742.834,703.9,742.836Z" transform="translate(-686.941 -724.903)"/><path class="e" d="M326.685,5.092c0,.374-.058.742-.1,1.113-.022.2-.034.393-.036.588a6.444,6.444,0,0,1-.3,1.829c-.022.07-.039.14-.058.207a3.8,3.8,0,0,0-.321,1.248c-.019.145-.036.289-.067.431a.546.546,0,0,1-.053-.251c0-.313,0-.627,0-.94a4.363,4.363,0,0,0-.111-.868,3.409,3.409,0,0,1-.111-1.012,4.339,4.339,0,0,0-.133-1.178,4.635,4.635,0,0,0-.313-1.068,1.5,1.5,0,0,0-1.538-.93c-.229.01-.455.031-.684.051a.988.988,0,0,1-.4-.043,1.908,1.908,0,0,0-1.125-.022,4.332,4.332,0,0,1-1.926.077,4.045,4.045,0,0,1-.492-.188,1.025,1.025,0,0,0-1.159.383,2.932,2.932,0,0,0-.345.7c-.251.615-.494,1.234-.74,1.851a.539.539,0,0,0-.034.14,11.075,11.075,0,0,0-.019,1.574,3.389,3.389,0,0,1-.075.5,13.162,13.162,0,0,0-.072,1.477v.142a.587.587,0,0,1-.12-.282,4.263,4.263,0,0,1-.077-.875.921.921,0,0,0-.1-.439c-.082-.164-.157-.333-.236-.5a6.169,6.169,0,0,0-.2-.723,5.174,5.174,0,0,1-.135-1.154c0-.429-.041-.858-.027-1.287a9.549,9.549,0,0,1,.511-2.74.687.687,0,0,1,.3-.419c.1-.058.157-.2.236-.3a4.406,4.406,0,0,1,.983-.9l.055-.029c.007,0,.012-.01.017-.012a.053.053,0,0,0,.048-.029l.169-.08c.014,0,.022,0,.027-.017a.029.029,0,0,0,.022-.007l.029-.014a.015.015,0,0,0,.019,0,.046.046,0,0,0,.053-.019c.022-.01.046-.017.067-.027.1-.022.022-.08.024-.12.036-.12.152-.133.243-.166a2.277,2.277,0,0,1,.706-.123.507.507,0,0,0,.352-.137,1.359,1.359,0,0,1,.841-.342,2.6,2.6,0,0,1,.67.029,2.821,2.821,0,0,1,.569.176.543.543,0,0,0,.27.024,2.21,2.21,0,0,1,.564-.024c.084.012.181.007.222.111.01.027.034.019.051.012a.9.9,0,0,0,.407-.181c.053.243.229.284.431.323a.934.934,0,0,1,.668.448.846.846,0,0,1,.106.328c0,.065.019.082.087.063a2.637,2.637,0,0,1,.53-.1,1.1,1.1,0,0,1,.668.116c-.077.043-.161.063-.2.137s-.051.125.051.154a1.526,1.526,0,0,1,1.012,1.012,4.566,4.566,0,0,1,.239,1.15A8.689,8.689,0,0,1,326.685,5.092Z" transform="translate(-307.971 -0.153)"/><path class="f" d="M397.892,642.4c-.043-.063-.017-.13-.017-.2C397.95,642.26,397.923,642.328,397.892,642.4Z" transform="translate(-388.284 -626.727)"/><path class="f" d="M387.9,740.4c-.007.067-.024.125-.1.14A.2.2,0,0,1,387.9,740.4Z" transform="translate(-378.459 -722.56)"/><path class="f" d="M689.034,631.372c-.029-.024-.029-.048,0-.072C689.063,631.326,689.063,631.35,689.034,631.372Z" transform="translate(-672.412 -616.09)"/><path class="f" d="M397.149,630.251a.043.043,0,0,1-.019-.051C397.156,630.21,397.183,630.219,397.149,630.251Z" transform="translate(-387.562 -615.016)"/><path class="f" d="M392,738.253a.05.05,0,0,1,.043-.053C392.046,738.234,392.031,738.251,392,738.253Z" transform="translate(-382.558 -720.413)"/><path class="g" d="M285.11,807.526c-.017,0-.014-.014-.014-.026A.254.254,0,0,1,285.11,807.526Z" transform="translate(-278.229 -788.043)"/></svg>