<svg id="message" xmlns="http://www.w3.org/2000/svg" width="32.901" height="29.877" viewBox="0 0 32.901 29.877">
  <path id="Path_17" data-name="Path 17" d="M26.154.5H6.747C3.027.5,0,3.838,0,7.941V19.433a7.263,7.263,0,0,0,4.774,7.038l3.259,3.594a.9.9,0,0,0,1.363,0l2.989-3.3H26.154c3.721,0,6.747-3.338,6.747-7.441V7.941C32.9,3.838,29.875.5,26.154.5Zm4.82,18.828a5.091,5.091,0,0,1-4.82,5.315H11.986a.921.921,0,0,0-.682.311L8.714,27.81,5.955,24.768a.944.944,0,0,0-.449-.28,5.13,5.13,0,0,1-3.579-5.055V7.941a5.091,5.091,0,0,1,4.82-5.315H26.154a5.091,5.091,0,0,1,4.82,5.315Zm0,0" transform="translate(0 -0.5)" fill="#757575"/>
  <path id="Path_18" data-name="Path 18" d="M158.963,144.328H146.722a1.068,1.068,0,0,0,0,2.126h12.241a1.068,1.068,0,0,0,0-2.126Zm0,0" transform="translate(-136.391 -134.135)" fill="#757575"/>
  <path id="Path_19" data-name="Path 19" d="M158.963,197.352H146.722a1.068,1.068,0,0,0,0,2.126h12.241a1.068,1.068,0,0,0,0-2.126Zm0,0" transform="translate(-136.391 -183.402)" fill="#757575"/>
</svg>
