<svg id="notification-line" xmlns="http://www.w3.org/2000/svg" width="21.795" height="26.218" viewBox="0 0 21.795 26.218">
  <path id="Path_31" data-name="Path 31" d="M24.6,22.79a11.389,11.389,0,0,1-1.836-2.363,11,11,0,0,1-.987-3.88V12.563c.01-4.4-2.95-8.113-6.9-8.671V2.852a.981.981,0,1,0-1.953,0V3.908C9,4.505,6.085,8.2,6.093,12.563v3.984a11,11,0,0,1-.987,3.88A11.414,11.414,0,0,1,3.3,22.79a.844.844,0,0,0-.249.6v1.1a.772.772,0,0,0,.731.807H24.114a.772.772,0,0,0,.731-.807V23.4A.844.844,0,0,0,24.6,22.79Zm-20.025.9a12.881,12.881,0,0,0,1.785-2.42,12.4,12.4,0,0,0,1.207-4.718V12.563a7.244,7.244,0,0,1,3.13-6.3,5.884,5.884,0,0,1,6.517,0,7.244,7.244,0,0,1,3.13,6.3v3.984a12.4,12.4,0,0,0,1.207,4.718,12.881,12.881,0,0,0,1.785,2.42Z" transform="translate(-3.05 -1.775)" fill="#757575"/>
  <path id="Path_32" data-name="Path 32" d="M17.28,33.839A2.03,2.03,0,0,0,19.167,32H15.32a2.021,2.021,0,0,0,1.96,1.839Z" transform="translate(-6.346 -7.621)" fill="#757575"/>
</svg>
