<svg xmlns="http://www.w3.org/2000/svg" width="27" height="27" viewBox="0 0 27 27"><defs><style>.a{fill:#a1a1a1;}</style></defs><path class="a" d="M29.25,4.5H6.75A2.25,2.25,0,0,0,4.5,6.75v22.5A2.25,2.25,0,0,0,6.75,31.5h22.5a2.25,2.25,0,0,0,2.25-2.25V6.75A2.25,2.25,0,0,0,29.25,4.5Zm0,24.75H6.75V22.5l5.625-5.625,6.289,6.289a2.25,2.25,0,0,0,3.172,0l1.789-1.789L29.25,27Zm0-5.434-4.039-4.039a2.25,2.25,0,0,0-3.172,0L20.25,21.566l-6.289-6.289a2.25,2.25,0,0,0-3.172,0L6.75,19.316V6.75h22.5Z" transform="translate(-4.5 -4.5)"/></svg>