<svg xmlns="http://www.w3.org/2000/svg" width="29.386" height="29.386" viewBox="0 0 29.386 29.386"><defs><style>.a{fill:#a1a1a1;}</style></defs><g transform="translate(-0.001)"><g transform="translate(0.001 0)"><path class="a" d="M27.631,19.24a5.957,5.957,0,0,0-5.955-1.478l-2.1-2.1L28.745,6.5a2.195,2.195,0,0,0,0-3.1L25.994.643a2.195,2.195,0,0,0-3.1,0L13.723,9.809l-2.1-2.1A5.945,5.945,0,0,0,3.547.52a.574.574,0,0,0-.174.931L6.111,4.189,4.175,6.125,1.437,3.387a.574.574,0,0,0-.931.174A5.945,5.945,0,0,0,7.7,11.639l2.1,2.1L2.775,20.758a.58.58,0,0,0-.139.226l-2.5,7.542a.574.574,0,0,0,.725.725l7.535-2.5a.692.692,0,0,0,.234-.142l7.021-7.021,2.1,2.1a5.945,5.945,0,0,0,8.078,7.192A.574.574,0,0,0,26,27.951l-2.738-2.738L25.2,23.277l2.738,2.738a.574.574,0,0,0,.931-.174,5.945,5.945,0,0,0-1.237-6.6ZM23.7,1.455a1.047,1.047,0,0,1,1.481,0l2.751,2.751a1.047,1.047,0,0,1,0,1.481L26.071,7.548,21.839,3.317ZM8.256,10.575a.574.574,0,0,0-.609-.131A4.8,4.8,0,0,1,1.277,4.85L3.769,7.342a.574.574,0,0,0,.812,0L7.328,4.595a.574.574,0,0,0,0-.812L4.836,1.291a4.8,4.8,0,0,1,5.594,6.37.574.574,0,0,0,.131.609l2.351,2.351-2.3,2.3ZM1.585,27.8l.83-2.505L4.09,26.972Zm3.724-1.234-2.49-2.49.613-1.851L7.16,25.955ZM8.224,25.4l-1.71-1.71,5.618-5.618a.574.574,0,1,0-.812-.812L5.7,22.874l-1.71-1.71L21.027,4.129l.046.046,1.664,1.664-7.748,7.748a.574.574,0,1,0,.812.812L23.549,6.65l1.71,1.71ZM28.1,24.551,25.6,22.059a.574.574,0,0,0-.812,0l-2.748,2.748a.574.574,0,0,0,0,.812l2.492,2.492a4.8,4.8,0,0,1-5.594-6.37.574.574,0,0,0-.131-.609L16.462,18.78l2.3-2.3,2.351,2.351a.574.574,0,0,0,.609.131,4.8,4.8,0,0,1,6.37,5.594Z" transform="translate(-0.001 0)"/><g transform="translate(12.994 15.247)"><path class="a" d="M226.972,266.8a.574.574,0,1,1,.562-.462A.579.579,0,0,1,226.972,266.8Z" transform="translate(-226.399 -265.651)"/></g></g></g></svg>