<svg xmlns="http://www.w3.org/2000/svg" width="41" height="40" viewBox="0 0 41 40"><defs><style>.a{fill:#f3f3f3;}.a,.b{opacity:0.37;}.c{fill:#4d4d4d;stroke:#253c8f;stroke-width:0.6px;}</style></defs><g transform="translate(-29 -117)"><g transform="translate(-253.448 114)"><rect class="a" width="41" height="40" rx="11" transform="translate(282.448 3)"/><g class="b" transform="translate(292.905 12.04)"><g transform="translate(0 0)"><path class="c" d="M19.818,13.8a4.273,4.273,0,0,0-4.271-1.06l-1.5-1.5L20.617,4.66a1.574,1.574,0,0,0,0-2.226L18.644.461a1.574,1.574,0,0,0-2.226,0L9.843,7.036l-1.5-1.5A4.264,4.264,0,0,0,2.545.373a.412.412,0,0,0-.125.668L4.383,3,2.995,4.393,1.031,2.429a.412.412,0,0,0-.668.125A4.264,4.264,0,0,0,5.521,8.348l1.5,1.5L1.991,14.888a.416.416,0,0,0-.1.162L.1,20.46a.412.412,0,0,0,.52.52l5.4-1.791a.5.5,0,0,0,.168-.1l5.035-5.035,1.5,1.5a4.264,4.264,0,0,0,5.794,5.158.412.412,0,0,0,.125-.668l-1.964-1.964,1.388-1.388,1.964,1.964a.412.412,0,0,0,.668-.125,4.264,4.264,0,0,0-.887-4.734ZM17,1.043a.751.751,0,0,1,1.062,0l1.973,1.973a.751.751,0,0,1,0,1.062L18.7,5.414,15.664,2.379ZM5.922,7.584a.412.412,0,0,0-.437-.094A3.442,3.442,0,0,1,.916,3.479L2.7,5.266a.412.412,0,0,0,.582,0L5.257,3.3a.412.412,0,0,0,0-.582L3.469.926A3.442,3.442,0,0,1,7.481,5.495a.412.412,0,0,0,.094.437L9.261,7.618,7.608,9.271ZM1.137,19.941l.6-1.8,1.2,1.2Zm2.671-.885L2.022,17.269l.44-1.327,2.673,2.673Zm2.09-.841L4.672,16.988,8.7,12.958a.412.412,0,1,0-.582-.582L4.09,16.406,2.864,15.179,15.082,2.961l.033.033,1.193,1.193L10.751,9.744a.412.412,0,1,0,.582.582L16.89,4.77,18.117,6Zm14.253-.605-1.788-1.788a.412.412,0,0,0-.582,0l-1.971,1.971a.412.412,0,0,0,0,.582L17.6,20.162a3.442,3.442,0,0,1-4.012-4.569.412.412,0,0,0-.094-.437L11.807,13.47l1.653-1.653L15.146,13.5a.411.411,0,0,0,.437.094,3.442,3.442,0,0,1,4.569,4.012Z" transform="translate(-0.001 0)"/><g transform="translate(9.32 10.936)"><path class="c" d="M226.81,266.473a.412.412,0,1,1,.4-.331A.415.415,0,0,1,226.81,266.473Z" transform="translate(-226.399 -265.651)"/></g></g></g></g></g></svg>