<svg xmlns="http://www.w3.org/2000/svg" width="34.299" height="34.301" viewBox="0 0 34.299 34.301">
  <path id="Path_9" data-name="Path 9" d="M33.32,18.15A15.171,15.171,0,1,0,18.149,33.322,15.172,15.172,0,0,0,33.32,18.15Zm1.979,0A17.149,17.149,0,1,1,18.149,1,17.149,17.149,0,0,1,35.3,18.15Zm-25.752,0h.2a.5.5,0,0,1,.4.78,7.428,7.428,0,0,0-1.255,4.133v.656a3.961,3.961,0,0,0,.028.471.492.492,0,0,1-.484.557H7.758a2.177,2.177,0,0,1-2.141-2.207A4.09,4.09,0,0,1,9.547,18.15Zm17.2,0a4.089,4.089,0,0,1,3.93,4.389,2.177,2.177,0,0,1-2.14,2.207h-.678a.491.491,0,0,1-.484-.557,4.261,4.261,0,0,0,.026-.471v-.656a7.427,7.427,0,0,0-1.253-4.133.5.5,0,0,1,.4-.78ZM10.564,16.831a2.821,2.821,0,0,1-2.638-2.968c0-1.8,1.036-2.968,2.638-2.968S13.2,12.061,13.2,13.863A2.821,2.821,0,0,1,10.564,16.831Zm15.171,0A2.821,2.821,0,0,1,23.1,13.863c0-1.8,1.036-2.968,2.638-2.968s2.638,1.166,2.638,2.968A2.821,2.821,0,0,1,25.735,16.831Zm-6.039.66a5.649,5.649,0,0,1,5.709,5.573v.656A2.378,2.378,0,0,1,23,26.066H13.3a2.378,2.378,0,0,1-2.4-2.347v-.656A5.648,5.648,0,0,1,16.6,17.491Zm2.082-5.937a3.807,3.807,0,0,1-3.628,3.958,3.808,3.808,0,0,1-3.628-3.958c0-2.441,1.39-3.958,3.628-3.958S21.777,9.113,21.777,11.554Z" transform="translate(-1 -1)" fill="#757575"/>
</svg>
