<svg xmlns="http://www.w3.org/2000/svg" width="24.82" height="24.82" viewBox="0 0 24.82 24.82">
  <g id="Group_65" data-name="Group 65" transform="translate(-1255 -247.09)">
    <g id="settings-line" transform="translate(1253 245.09)">
      <path id="Path_79" data-name="Path 79" d="M25.89,11.851l-2.172-.7-.465-1.163,1.086-2.017A1.3,1.3,0,0,0,24.106,6.5L22.244,4.637A1.3,1.3,0,0,0,20.77,4.4L18.754,5.49,17.59,5.025l-.7-2.172A1.261,1.261,0,0,0,15.729,2H13.092a1.088,1.088,0,0,0-1.086.931l-.7,2.172a3.427,3.427,0,0,0-1.241.465L8.05,4.482a1.3,1.3,0,0,0-1.474.233L4.715,6.576A1.3,1.3,0,0,0,4.482,8.05L5.49,9.989c-.155.388-.31.853-.465,1.241l-2.172.7A1.261,1.261,0,0,0,2,13.092v2.637a1.235,1.235,0,0,0,.931,1.163l2.172.7.465,1.163L4.482,20.77a1.3,1.3,0,0,0,.233,1.474l1.862,1.862a1.3,1.3,0,0,0,1.474.233l2.017-1.086,1.163.465.7,2.249a1.261,1.261,0,0,0,1.163.853h2.637a1.261,1.261,0,0,0,1.163-.853l.7-2.249,1.163-.465,2.017,1.086a1.3,1.3,0,0,0,1.474-.233l1.862-1.862a1.3,1.3,0,0,0,.233-1.474l-1.086-2.017.465-1.163,2.249-.7a1.261,1.261,0,0,0,.853-1.163V13.092a1.328,1.328,0,0,0-.931-1.241ZM25.269,15.5l-2.792.853-.078.388-.7,1.629-.233.388,1.4,2.56-1.551,1.551-2.56-1.4-.388.233a7.363,7.363,0,0,1-1.629.7l-.388.078L15.5,25.269H13.324l-.853-2.792-.388-.078-1.629-.7-.388-.233-2.56,1.4L5.956,21.313l1.4-2.56-.233-.388a7.364,7.364,0,0,1-.7-1.629l-.078-.388L3.551,15.5V13.324l2.637-.776.155-.388a6.584,6.584,0,0,1,.7-1.706l.233-.388L5.956,7.507,7.507,5.956l2.482,1.4.388-.233a6.584,6.584,0,0,1,1.706-.7l.388-.155.853-2.715H15.5l.853,2.715.388.155a7.363,7.363,0,0,1,1.629.7l.388.233,2.56-1.4,1.551,1.551-1.4,2.56.233.388a7.364,7.364,0,0,1,.7,1.629l.078.388,2.792.853Z" fill="#253c8f"/>
    </g>
    <g id="Ellipse_34" data-name="Ellipse 34" transform="translate(1256 248)" fill="#fff" stroke="#253c8f" stroke-width="1">
      <circle cx="11.5" cy="11.5" r="11.5" stroke="none"/>
      <circle cx="11.5" cy="11.5" r="11" fill="none"/>
    </g>
  </g>
</svg>
